# xmcd
# Track frame offsets:
# 150
# 11917
# 24517
# 35980
# 46531
# 57571
# 67467
# 78060
# 88614
# 98554
# 109137
# 120481
# 133360
# 145454
# 154041
# 164513
# 173720
# 184650
# 193344
# 205170
# 216119
# 226583
# 237531
# 247291
# 257576
#
# Disc length: 3570 seconds
# Revision: 0
# Processed by: cddbd v1.5.1PL2 Copyright (c) Steve Scherf et al.
# Submitted via: VisiTrax 2.10.0.248 - For more info visit www.synapsa.com
#
DISCID=6e0df019
DTITLE=Fats Domino - They Call Me The Fat Man - The Legendary Imperial Record
DTITLE=ings Cd 1 (1949-1955)
DYEAR=1991
DGENRE=Rock and Roll
TTITLE0=The Fat Man
TTITLE1=She's My Baby
TTITLE2=Little Bee
TTITLE3=Boogie Woogie Baby
TTITLE4=Hey! La Bas Boogie
TTITLE5=Every Night About This Time
TTITLE6=Careless Love
TTITLE7=Don't Lie To Me
TTITLE8=Goin' Home
TTITLE9=Mardi Gras In New Orleans
TTITLE10=Going To The River
TTITLE11=Swanee River Hop
TTITLE12=Please Don't Leave Me
TTITLE13=Domino Stomp (Twistin' The Stomp)
TTITLE14=Rose Mary (Version 2)
TTITLE15=Where Did You Stay
TTITLE16=You Can Pack Your Suitcase
TTITLE17=Love Me
TTITLE18=I Know
TTITLE19=Don't You Know
TTITLE20=All By Myself
TTITLE21=Ain't It A Shame
TTITLE22=La-La (Version 1)
TTITLE23=Blue Monday
TTITLE24=Poor Me
EXTD=
EXTT0=
EXTT1=
EXTT2=
EXTT3=
EXTT4=
EXTT5=
EXTT6=
EXTT7=
EXTT8=
EXTT9=
EXTT10=
EXTT11=
EXTT12=
EXTT13=
EXTT14=
EXTT15=
EXTT16=
EXTT17=
EXTT18=
EXTT19=
EXTT20=
EXTT21=
EXTT22=
EXTT23=
EXTT24=
PLAYORDER=
